<?xml version="1.0" encoding="UTF-8" standalone="no"?>
<svg
   xmlns:dc="http://purl.org/dc/elements/1.1/"
   xmlns:cc="http://creativecommons.org/ns#"
   xmlns:rdf="http://www.w3.org/1999/02/22-rdf-syntax-ns#"
   xmlns:svg="http://www.w3.org/2000/svg"
   xmlns="http://www.w3.org/2000/svg"
   xmlns:sodipodi="http://sodipodi.sourceforge.net/DTD/sodipodi-0.dtd"
   xmlns:inkscape="http://www.inkscape.org/namespaces/inkscape"
   sodipodi:docname="InformationIcon.svg"
   inkscape:version="1.0 (4035a4fb49, 2020-05-01)"
   inkscape:export-ydpi="59.103485"
   inkscape:export-xdpi="59.103485"
   inkscape:export-filename="/home/klaus/git/let-him-mix/src/lhm-gui/TikiBot/resources/images/InformationIcon.gif.png"
   id="svg966"
   version="1.1"
   viewBox="0 0 85.950935 85.766312"
   height="85.766312mm"
   width="85.950935mm">
  <defs
     id="defs960" />
  <sodipodi:namedview
     inkscape:window-maximized="1"
     inkscape:window-y="0"
     inkscape:window-x="0"
     inkscape:window-height="995"
     inkscape:window-width="3840"
     fit-margin-bottom="0"
     fit-margin-right="0"
     fit-margin-left="0"
     fit-margin-top="0"
     showgrid="false"
     inkscape:document-rotation="0"
     inkscape:current-layer="layer1"
     inkscape:document-units="mm"
     inkscape:cy="95.913091"
     inkscape:cx="466.71171"
     inkscape:zoom="1.4"
     inkscape:pageshadow="2"
     inkscape:pageopacity="0.0"
     borderopacity="1.0"
     bordercolor="#666666"
     pagecolor="#ffffff"
     id="base" />
  <metadata
     id="metadata963">
    <rdf:RDF>
      <cc:Work
         rdf:about="">
        <dc:format>image/svg+xml</dc:format>
        <dc:type
           rdf:resource="http://purl.org/dc/dcmitype/StillImage" />
        <dc:title></dc:title>
      </cc:Work>
    </rdf:RDF>
  </metadata>
  <g
     transform="translate(-59.456085,-93.188278)"
     id="layer1"
     inkscape:groupmode="layer"
     inkscape:label="Ebene 1">
    <rect
       style="fill:#ffffff;fill-opacity:1;stroke:none"
       fill="none"
       stroke-width="0.568083"
       x="59.456085"
       y="93.188278"
       stroke-linecap="square"
       stroke="#000000"
       width="85.950935"
       height="85.766312"
       ry="7.4850626"
       stroke-linejoin="bevel"
       id="rect1539"
       rx="7.4850626" />
    <path
       style="stroke-width:0.264583"
       id="path3165"
       d="m 87.486612,160.1996 c 0.0299,-0.39687 0.3167,-0.53975 1.3462,-0.67733 2.54264,-0.33602 4.2201,-1.60867 5.42396,-4.11427 l 0.70114,-1.45521 0.0847,-8.60425 c 0.082,-8.33702 0.0662,-8.65452 -0.50271,-10.18646 -0.94191,-2.54529 -3.18293,-4.32594 -6.01133,-4.77837 -0.67971,-0.10848 -1.11257,-0.32015 -1.11257,-0.53975 l 22.739608,-0.36513 0.14817,25.00313 0.69585,1.4896 c 0.88106,1.87854 2.46592,3.03742 4.80219,3.51367 1.08215,0.2196 1.64571,0.46302 1.64571,0.70908 0,0.3175 -29.998458,0.49742 -29.961418,0.005 z m 12.715338,-32.14423 c -5.140848,-1.6801 -7.495638,-7.40383 -4.958288,-12.06261 2.667,-4.90194 9.268358,-5.84915 13.247688,-1.90104 1.75683,1.7444 2.34156,3.20517 2.34156,5.86291 0,1.92272 -0.10848,2.46565 -0.73554,3.74306 -0.83608,1.70127 -2.42094,3.23056 -4.1566,4.00579 -1.48432,0.66675 -4.2598,0.83608 -5.73882,0.35189 z" />
    <rect
       rx="7.4850626"
       id="rect2384"
       stroke-linejoin="bevel"
       ry="7.4850626"
       height="79.890938"
       width="80.06292"
       stroke="#000000"
       stroke-linecap="square"
       y="96.125961"
       x="62.400093"
       stroke-width="0.529167"
       fill="none" />
    <path
       style="stroke-width:0.264583"
       id="rect3156"
       fill="#0000ff"
       d="m 69.713752,101.1917 c -1.19618,0 -2.15794,0.97023 -2.15794,2.16614 v 65.43675 c 0,1.19592 0.96176,2.15636 2.15794,2.15636 h 65.434108 c 1.19591,0 2.159,-0.96044 2.159,-2.15636 v -65.43675 c 0,-1.19459 -0.96309,-2.16482 -2.159,-2.16482 H 69.713752 Z m 4.53919,6.53177 h 56.530878 v 56.52029 l -56.530878,0.003 10e-4,-56.52029 z" />
  </g>
</svg>
